<?xml version="1.0" standalone="no"?>
<!DOCTYPE svg PUBLIC "-//W3C//DTD SVG 20010904//EN"
 "http://www.w3.org/TR/2001/REC-SVG-20010904/DTD/svg10.dtd">
<svg version="1.0" xmlns="http://www.w3.org/2000/svg"
 width="260.000000pt" height="260.000000pt" viewBox="0 0 260.000000 260.000000"
 preserveAspectRatio="xMidYMid meet">
<metadata>
Created by potrace 1.11, written by Peter Selinger 2001-2013
</metadata>
<g transform="translate(0.000000,260.000000) scale(0.100000,-0.100000)"
fill="#000000" stroke="none">
<path d="M950 2461 c0 -7 -4 -10 -9 -6 -5 3 -15 -1 -23 -8 -13 -13 -45 -29
-61 -31 -5 -1 -14 -9 -21 -18 -7 -10 -16 -15 -19 -11 -4 3 -7 2 -7 -4 0 -6 -9
-13 -21 -16 -13 -4 -18 -10 -13 -18 4 -8 3 -10 -4 -5 -6 4 -22 1 -34 -6 -13
-7 -27 -11 -31 -10 -5 1 -6 -2 -3 -7 3 -5 -4 -11 -15 -14 -12 -3 -18 -10 -15
-16 4 -5 1 -13 -5 -17 -8 -4 -9 -3 -5 4 10 17 -10 15 -27 -3 -8 -8 -17 -11
-21 -8 -3 4 -6 1 -6 -5 0 -7 -7 -12 -15 -12 -8 0 -15 -4 -15 -10 0 -6 -3 -9
-7 -8 -13 3 -63 -24 -63 -34 0 -4 -10 -8 -22 -8 -12 0 -18 -3 -15 -7 8 -7 -52
-38 -66 -34 -5 1 -6 -3 -2 -9 3 -5 0 -10 -8 -10 -7 0 -23 -9 -36 -21 -12 -12
-25 -18 -28 -15 -3 3 -17 -6 -30 -21 -19 -20 -22 -28 -11 -34 10 -7 11 -9 0
-9 -7 0 -10 -5 -7 -10 3 -6 7 -28 7 -50 0 -22 4 -37 9 -34 5 3 6 -2 3 -10 -3
-9 -11 -16 -17 -16 -6 0 -2 -7 9 -16 10 -8 14 -13 7 -10 -8 5 -12 -6 -11 -34
0 -25 4 -37 11 -33 6 3 7 1 3 -6 -13 -21 -16 -72 -4 -65 7 5 8 2 3 -6 -10 -16
-11 -183 -1 -198 3 -6 2 -13 -4 -17 -6 -4 -8 -11 -4 -16 3 -6 6 -66 6 -134 0
-85 3 -123 11 -118 6 4 7 1 1 -8 -11 -18 -12 -139 0 -139 5 0 3 -7 -4 -15 -10
-12 -10 -15 1 -15 11 0 11 -2 -1 -10 -13 -8 -12 -11 5 -25 11 -8 16 -14 10
-13 -10 3 -16 -5 -14 -19 0 -5 0 -50 -1 -102 -1 -68 2 -96 12 -102 10 -7 10
-9 1 -9 -7 0 -13 -7 -13 -16 0 -8 5 -12 11 -9 6 4 5 -2 -2 -13 -10 -16 -10
-23 0 -35 7 -9 8 -18 3 -21 -12 -7 -12 -56 -1 -56 5 0 9 -5 9 -11 0 -5 -4 -7
-10 -4 -5 3 -10 2 -10 -4 0 -5 5 -13 10 -16 6 -4 7 -12 3 -18 -11 -16 -11 -67
-1 -67 4 0 8 -9 8 -19 0 -10 7 -22 16 -25 10 -4 13 -2 9 7 -4 6 0 5 7 -3 7 -8
24 -21 37 -28 19 -11 22 -11 16 0 -4 7 2 3 12 -9 10 -12 28 -24 40 -26 12 -2
26 -7 30 -12 5 -4 2 -5 -6 0 -10 6 -12 4 -7 -4 4 -7 13 -10 19 -8 6 2 20 -5
31 -15 11 -10 26 -18 34 -18 7 0 20 -7 29 -15 8 -8 18 -13 23 -10 4 3 11 -2
14 -11 3 -8 10 -12 16 -9 5 3 10 1 10 -5 0 -7 7 -9 16 -6 8 3 12 2 9 -3 -3 -5
5 -13 17 -17 12 -3 28 -13 36 -21 8 -8 20 -12 27 -9 8 3 16 -2 19 -11 4 -9 13
-13 22 -9 8 3 12 2 9 -4 -3 -5 11 -16 32 -25 20 -9 45 -23 55 -32 10 -9 18
-12 18 -8 0 4 10 0 21 -11 16 -14 23 -16 26 -6 3 6 9 9 15 6 6 -4 5 -10 -3
-15 -11 -6 -9 -9 5 -15 11 -4 21 -2 27 7 5 8 9 10 9 6 0 -4 6 -2 14 5 8 7 11
17 8 22 -3 5 0 6 6 2 6 -4 22 0 35 9 13 8 27 12 32 8 4 -5 5 0 2 10 -6 15 -3
17 12 12 12 -3 21 0 25 10 3 8 12 15 21 15 8 0 15 4 15 8 0 4 12 13 28 19 27
12 82 43 92 53 3 3 22 14 43 25 20 11 37 23 37 28 0 4 5 5 10 2 6 -3 10 -1 10
4 0 6 7 11 15 11 8 0 23 8 34 19 10 10 30 21 45 25 15 4 24 11 21 16 -3 6 1
10 10 10 9 0 23 7 32 15 8 8 19 13 24 9 5 -3 12 2 15 10 3 9 10 13 15 10 5 -3
9 0 9 5 0 6 7 11 16 11 8 0 12 5 9 10 -3 6 -1 10 6 10 7 0 9 3 6 7 -4 3 2 12
13 20 11 8 20 21 20 29 0 8 5 12 10 9 15 -10 51 5 44 17 -5 7 -1 9 9 5 10 -3
17 -3 17 2 0 5 15 14 33 21 17 7 37 18 42 25 6 6 24 18 40 26 17 9 29 21 27
28 -1 7 2 10 7 7 12 -8 61 14 61 26 0 5 5 6 10 3 6 -3 10 -1 10 4 0 6 7 11 16
11 11 0 14 5 10 16 -5 14 -4 15 8 5 11 -10 16 -9 24 4 5 9 12 16 15 16 18 -2
18 0 6 16 -13 15 -12 15 9 2 21 -13 25 -12 43 10 10 13 19 20 19 16 0 -4 6 -2
13 4 8 6 18 7 22 3 5 -4 5 -2 2 4 -4 7 4 14 19 18 19 5 24 11 19 24 -5 13 -3
14 6 5 14 -14 42 -6 32 10 -4 6 0 8 11 4 10 -4 15 -3 11 3 -3 6 -1 10 5 10 8
0 11 26 9 79 -1 43 2 84 6 91 6 10 4 12 -8 7 -11 -4 -14 -2 -10 9 3 7 9 14 15
14 5 0 6 6 2 12 -5 7 -9 92 -10 188 -2 96 -4 220 -5 276 l-2 100 -31 19 c-44
27 -86 45 -86 38 0 -4 -6 1 -13 12 -8 10 -19 15 -26 11 -6 -4 -10 -4 -9 1 2 4
0 8 -4 8 -4 0 -14 9 -23 20 -9 11 -14 13 -10 5 5 -12 4 -12 -7 1 -7 9 -24 20
-38 24 -13 4 -30 14 -38 21 -7 8 -18 12 -23 9 -5 -4 -9 -1 -9 4 0 6 -6 11 -14
11 -7 0 -19 7 -26 15 -7 9 -19 14 -27 11 -8 -3 -11 -1 -8 4 3 6 1 10 -5 10 -6
0 -27 11 -47 25 -20 13 -40 22 -44 20 -4 -3 -9 2 -12 10 -4 8 -15 12 -27 10
-13 -3 -18 0 -14 7 5 7 1 9 -9 5 -10 -4 -16 -2 -14 6 1 6 -8 13 -21 15 -14 2
-20 8 -16 15 4 7 4 9 -1 5 -5 -5 -23 4 -42 18 -18 14 -38 22 -43 19 -6 -3 -10
-1 -10 4 0 6 -3 10 -7 9 -5 -2 -25 8 -45 20 -21 13 -43 20 -50 16 -7 -4 -10
-4 -6 1 10 10 -21 34 -44 35 -10 0 -18 4 -18 9 0 5 -13 14 -30 21 -16 7 -30
17 -30 23 0 6 -3 7 -6 4 -7 -7 -64 22 -76 38 -5 6 -8 4 -8 -5 -1 -9 -5 -6 -10
8 -5 12 -17 22 -25 22 -9 0 -23 7 -32 15 -8 8 -18 13 -22 10 -5 -2 -16 4 -26
15 -10 11 -26 20 -37 20 -10 0 -18 5 -18 10 0 6 -9 10 -20 10 -11 0 -20 4 -20
8 0 5 -18 17 -40 27 -22 10 -40 23 -40 28 0 6 -3 7 -7 4 -3 -4 -12 -2 -20 4
-10 9 -13 8 -13 0z m-135 -141 c3 -6 -1 -7 -9 -4 -18 7 -21 14 -7 14 6 0 13
-4 16 -10z m325 -356 c0 -8 -19 -13 -24 -6 -3 5 1 9 9 9 8 0 15 -2 15 -3z
m-335 -44 c3 -5 1 -10 -4 -10 -6 0 -11 5 -11 10 0 6 2 10 4 10 3 0 8 -4 11
-10z m1125 -160 c0 -5 -2 -10 -4 -10 -3 0 -8 5 -11 10 -3 6 -1 10 4 10 6 0 11
-4 11 -10z m-1240 -40 c0 -5 -2 -10 -4 -10 -3 0 -8 5 -11 10 -3 6 -1 10 4 10
6 0 11 -4 11 -10z m-325 -80 c3 -5 1 -10 -4 -10 -6 0 -11 5 -11 10 0 6 2 10 4
10 3 0 8 -4 11 -10z m325 0 c0 -5 -5 -10 -11 -10 -5 0 -7 5 -4 10 3 6 8 10 11
10 2 0 4 -4 4 -10z m1200 6 c0 -3 -4 -8 -10 -11 -5 -3 -10 -1 -10 4 0 6 5 11
10 11 6 0 10 -2 10 -4z m-5 -86 c3 -5 1 -10 -4 -10 -6 0 -11 5 -11 10 0 6 2
10 4 10 3 0 8 -4 11 -10z m362 -515 c0 -8 -4 -12 -9 -9 -5 3 -6 10 -3 15 9 13
12 11 12 -6z m-1603 -91 c3 -8 2 -12 -4 -9 -6 3 -10 10 -10 16 0 14 7 11 14
-7z m-77 -269 c0 -8 -4 -12 -9 -9 -5 3 -6 10 -3 15 9 13 12 11 12 -6z m1247
-3 c3 -5 -1 -9 -9 -9 -8 0 -12 4 -9 9 3 4 7 8 9 8 2 0 6 -4 9 -8z m-604 -116
c0 -3 -4 -8 -10 -11 -5 -3 -10 -1 -10 4 0 6 5 11 10 11 6 0 10 -2 10 -4z
m-245 -35 c3 -5 2 -12 -3 -15 -5 -3 -9 1 -9 9 0 17 3 19 12 6z m318 -46 c-3
-9 -8 -14 -10 -11 -3 3 -2 9 2 15 9 16 15 13 8 -4z m242 -13 c-3 -3 -11 0 -18
7 -9 10 -8 11 6 5 10 -3 15 -9 12 -12z m-561 -158 c3 -8 2 -12 -4 -9 -6 3 -10
10 -10 16 0 14 7 11 14 -7z"/>
</g>
</svg>
